# Blender v3.0.0 OBJ File: 'BuildingParts.blend'
# www.blender.org
o Interface-AA-BA-AB_Plane.023
v 0.250000 1.000000 0.433013
v 0.000000 1.000000 0.866025
v 0.500000 0.500000 0.866025
v 0.357684 0.500000 0.619527
v 0.250000 0.686514 0.433013
v 0.000000 0.686514 0.866025
v 0.215369 0.500000 0.866025
v -0.333374 0.345667 0.577420
v -0.261176 0.286117 0.452371
v -0.000000 0.000000 0.866025
v -0.250000 0.000000 0.433013
v 0.115751 0.205438 0.866025
v -0.192124 0.205438 0.332769
v -0.500000 0.500000 0.866025
v -0.256166 0.260570 0.443693
v -0.250000 0.150192 0.433013
v -0.000000 0.150192 0.866025
v -0.339944 0.370640 0.588801
v -0.412157 0.425467 0.713877
v -0.419520 0.449507 0.726631
v -0.339041 0.449507 0.866025
v -0.324315 0.425467 0.866025
v -0.179888 0.370640 0.866025
v -0.166747 0.345667 0.866025
v -0.022353 0.286117 0.866025
v -0.012333 0.260570 0.866025
v -0.192120 0.150395 0.332762
v 0.115760 0.150395 0.866025
v -0.125000 0.000000 0.649519
v 0.097836 0.205438 0.639366
v -0.004789 0.205438 0.461614
v -0.090179 0.260570 0.535563
v -0.008901 0.260570 0.676341
v -0.096859 0.286117 0.541349
v -0.017251 0.286117 0.679233
v -0.193122 0.345667 0.624715
v -0.137580 0.345667 0.720916
v -0.201883 0.370640 0.632302
v -0.148531 0.370640 0.724710
v -0.298167 0.425467 0.715686
v -0.268886 0.425467 0.766402
v -0.307984 0.449507 0.724188
v -0.281158 0.449507 0.770653
v -0.125000 0.150192 0.649519
v -0.004784 0.150395 0.461609
v 0.097843 0.150395 0.639364
v -0.459760 0.500000 0.796328
v -0.419520 0.500000 0.866025
v -0.407933 0.500000 0.812870
vt 0.576983 0.925761
vt 0.576983 0.925761
vt 0.576983 0.925761
vt 0.576983 0.925761
vt 0.571088 0.690148
vt 0.571088 0.690148
vt 0.571088 0.690148
vt 0.576983 0.427824
vt 0.576983 0.427824
vt 0.576983 0.427824
vt 0.437994 0.938183
vt 0.437994 0.938183
vt 0.437994 0.938183
vt 0.437994 0.938183
vt 0.437994 0.938183
vt 0.437994 0.938183
vt 0.439648 0.564834
vt 0.439648 0.564834
vt 0.439648 0.564834
vt 0.439648 0.564834
vt 0.439648 0.564834
vt 0.439648 0.564834
vt 0.579574 0.936044
vt 0.579574 0.936044
vt 0.579574 0.936044
vt 0.439648 0.564834
vt 0.439648 0.564834
vt 0.439648 0.564834
vt 0.437994 0.938183
vt 0.437994 0.938183
vt 0.437994 0.938183
vt 0.439648 0.564834
vt 0.439648 0.564834
vt 0.439648 0.564834
vt 0.437994 0.938183
vt 0.437994 0.938183
vt 0.437994 0.938183
vt 0.453144 0.183007
vt 0.453144 0.183007
vt 0.453144 0.183007
vt 0.453144 0.183007
vt 0.453144 0.183007
vt 0.453144 0.183007
vt 0.439648 0.564834
vt 0.439648 0.564834
vt 0.439648 0.564834
vt 0.439648 0.564834
vt 0.437994 0.938183
vt 0.437994 0.938183
vt 0.437994 0.938183
vt 0.437994 0.938183
vt 0.439648 0.564834
vt 0.439648 0.564834
vt 0.439648 0.564834
vt 0.439648 0.564834
vt 0.579574 0.936044
vt 0.579574 0.936044
vt 0.439648 0.564834
vt 0.439648 0.564834
vt 0.439648 0.564834
vt 0.439648 0.564834
vt 0.439648 0.564834
vt 0.439648 0.564834
vt 0.439648 0.564834
vt 0.439648 0.564834
vt 0.437994 0.938183
vt 0.437994 0.938183
vt 0.437994 0.938183
vt 0.437994 0.938183
vt 0.437994 0.938183
vt 0.437994 0.938183
vt 0.437994 0.938183
vt 0.437994 0.938183
vt 0.437994 0.938183
vt 0.437994 0.938183
vt 0.444853 0.557167
vt 0.444853 0.557167
vt 0.444853 0.557167
vt 0.437994 0.938183
vt 0.444853 0.557167
vt 0.437994 0.938183
vt 0.571088 0.690148
vt 0.437994 0.938183
vt 0.437994 0.938183
vt 0.439648 0.564834
vt 0.439648 0.564834
vt 0.579574 0.936044
vt 0.439648 0.564834
vt 0.437994 0.938183
vt 0.439648 0.564834
vt 0.453144 0.183007
vn 0.8660 0.0000 0.5000
vn 0.6124 0.7071 0.3536
vn 0.0000 1.0000 0.0000
vn -0.4469 -0.8945 -0.0122
vn -0.4489 -0.8929 0.0355
vn -0.9969 -0.0001 0.0788
vn -0.9509 -0.3089 -0.0172
vn -0.8660 0.0000 0.5000
vn -0.9103 -0.3714 -0.1830
vn -0.4404 -0.8925 -0.0977
vn -0.8222 -0.3388 -0.4574
vn -0.5058 -0.8062 -0.3070
vn -0.0009 1.0000 0.0005
vn -0.0010 1.0000 0.0014
vn 0.0194 -0.4639 0.8857
vn -0.7650 -0.4686 0.4417
vn -0.0063 -0.9172 0.3984
vn -0.3477 -0.9159 0.2007
vn -0.2673 -0.4569 0.8484
vn -0.7881 -0.4147 0.4550
vn -0.4433 -0.3650 0.8187
vn -0.8200 -0.3216 0.4734
vn -0.5667 -0.0002 0.8239
vn -0.8660 -0.0001 0.5000
vn -0.1915 -0.9185 0.3460
vn -0.3855 -0.8955 0.2225
vn -0.1239 -0.9218 0.3674
vn -0.3723 -0.9029 0.2150
vn -0.3117 -0.9330 0.1799
vn 0.0000 -1.0000 0.0000
vn -0.1224 -0.9155 0.3833
vn -0.3932 -0.9155 -0.0857
vn 0.0130 -0.8062 0.5915
vn -0.3801 -0.9218 -0.0764
vn -0.3954 -0.9185 -0.0072
vn -0.9969 -0.0002 0.0788
vn -0.9306 -0.3650 -0.0254
vn -0.8684 -0.4569 -0.1927
vn -0.3482 -0.9172 -0.1937
vn -0.7573 -0.4639 -0.4596
vn -0.0018 1.0000 0.0001
vn -0.0149 -0.3388 0.9407
vn -0.1356 -0.8925 0.4303
vn -0.2967 -0.3714 0.8798
vn -0.4606 -0.3089 0.8321
vn -0.5667 -0.0001 0.8239
vn -0.2552 -0.8929 0.3710
vn -0.2129 -0.8945 0.3931
s off
f 6/1/1 1/2/1 2/3/1
f 6/1/1 5/4/1 1/2/1
f 7/5/2 5/6/2 6/7/2
f 7/8/3 3/9/3 4/10/3
f 25/11/4 37/12/4 35/13/4
f 12/14/5 33/15/5 30/16/5
f 28/17/6 30/18/6 46/19/6
f 26/20/7 35/21/7 33/22/7
f 44/23/8 11/24/8 29/25/8
f 24/26/9 39/27/9 37/28/9
f 23/29/10 41/30/10 39/31/10
f 22/32/11 43/33/11 41/34/11
f 48/35/12 43/36/12 21/37/12
f 17/38/13 46/39/13 44/40/13
f 16/41/14 45/42/14 27/43/14
f 44/40/13 46/39/13 45/42/13
f 19/44/15 42/45/15 20/46/15
f 41/34/16 42/45/16 40/47/16
f 18/48/17 40/49/17 19/50/17
f 39/31/18 40/49/18 38/51/18
f 8/52/19 38/53/19 18/54/19
f 37/28/20 38/53/20 36/55/20
f 17/56/8 29/25/8 10/57/8
f 15/58/21 34/59/21 9/60/21
f 33/22/22 34/59/22 32/61/22
f 27/62/23 31/63/23 13/64/23
f 45/65/24 30/18/24 31/63/24
f 13/66/25 32/67/25 15/68/25
f 30/16/26 32/67/26 31/69/26
f 9/70/27 36/71/27 8/72/27
f 35/13/28 36/71/28 34/73/28
f 49/74/29 42/75/29 43/36/29
f 47/76/30 49/77/30 14/78/30
f 47/79/31 42/75/31 49/74/31
f 49/74/32 43/36/32 48/35/32
f 14/78/30 49/77/30 48/80/30
f 20/81/33 42/75/33 47/79/33
f 7/5/2 4/82/2 5/6/2
f 25/11/34 24/83/34 37/12/34
f 12/14/35 26/84/35 33/15/35
f 28/17/36 12/85/36 30/18/36
f 26/20/37 25/86/37 35/21/37
f 44/23/8 16/87/8 11/24/8
f 24/26/38 23/88/38 39/27/38
f 23/29/39 22/89/39 41/30/39
f 22/32/40 21/90/40 43/33/40
f 17/38/41 28/91/41 46/39/41
f 16/41/13 44/40/13 45/42/13
f 19/44/42 40/47/42 42/45/42
f 41/34/16 43/33/16 42/45/16
f 18/48/43 38/51/43 40/49/43
f 39/31/18 41/30/18 40/49/18
f 8/52/44 36/55/44 38/53/44
f 37/28/20 39/27/20 38/53/20
f 17/56/8 44/23/8 29/25/8
f 15/58/45 32/61/45 34/59/45
f 33/22/22 35/21/22 34/59/22
f 27/62/46 45/65/46 31/63/46
f 45/65/24 46/19/24 30/18/24
f 13/66/47 31/69/47 32/67/47
f 30/16/26 33/15/26 32/67/26
f 9/70/48 34/73/48 36/71/48
f 35/13/28 37/12/28 36/71/28
