# Blender v3.0.0 OBJ File: 'BuildingParts.blend'
# www.blender.org
o Shore-WA-BA-BA_Plane.008
v 0.110728 0.000000 0.191786
v -0.110728 0.000000 0.191786
v -0.112723 0.575476 0.195241
v -0.179967 0.575476 0.311712
v 0.210387 0.500000 0.364401
v -0.210387 0.500000 0.364401
v -0.500000 0.500000 0.866025
v 0.179967 0.575476 0.311712
v 0.112723 0.575476 0.195241
v 0.138057 0.500000 0.239122
v -0.138057 0.500000 0.239122
v 0.500000 0.500000 0.866025
vt 0.054922 0.898438
vt 0.054922 0.898438
vt 0.054922 0.898438
vt 0.054922 0.571434
vt 0.054922 0.571434
vt 0.054922 0.571434
vt 0.164011 0.933594
vt 0.164011 0.933594
vt 0.164011 0.933594
vt 0.304688 0.938998
vt 0.304688 0.938998
vt 0.304688 0.938998
vt 0.054922 0.571434
vt 0.054922 0.571434
vt 0.054922 0.571434
vt 0.164011 0.933594
vt 0.054922 0.898438
vt 0.054922 0.571434
vt 0.304688 0.938998
vt 0.054922 0.571434
vn 0.0000 1.0000 0.0000
vn 0.0000 0.5724 0.8200
vn 0.0000 0.0943 -0.9955
vn 0.0000 -0.5026 -0.8645
s off
f 9/1/1 4/2/1 8/3/1
f 6/4/2 8/5/2 4/6/2
f 7/7/1 5/8/1 6/9/1
f 2/10/3 10/11/3 1/12/3
f 11/13/4 9/14/4 10/15/4
f 5/8/1 7/7/1 12/16/1
f 9/1/1 3/17/1 4/2/1
f 6/4/2 5/18/2 8/5/2
f 2/10/3 11/19/3 10/11/3
f 11/13/4 3/20/4 9/14/4
