# Blender v3.0.0 OBJ File: 'BuildingParts.blend'
# www.blender.org
o ShoreCorner-BA-WB-WA_Plane.064
v 0.278545 0.000000 0.866026
v -0.172783 0.000000 0.299269
v -0.287200 0.575476 0.497444
v -0.338584 0.575476 0.586444
v 0.079162 0.500000 0.866026
v -0.369003 0.500000 0.639132
v -0.500000 0.500000 0.866025
v 0.140066 0.575476 0.866025
v 0.274555 0.575476 0.866026
v 0.223886 0.500000 0.866025
v -0.313114 0.470370 0.542329
v -0.250000 1.000000 0.433012
v 0.250000 1.000000 0.433012
v -0.000000 0.500000 -0.000000
v -0.142316 0.500000 0.246498
v -0.250000 0.686514 0.433012
v 0.250000 0.686514 0.433012
v 0.142316 0.500000 0.246498
vt 0.060155 0.921542
vt 0.060155 0.921542
vt 0.060155 0.921542
vt 0.060155 0.567288
vt 0.060155 0.567288
vt 0.060155 0.567288
vt 0.183594 0.941453
vt 0.183594 0.941453
vt 0.183594 0.941453
vt 0.315004 0.943550
vt 0.315004 0.943550
vt 0.315004 0.943550
vt 0.060155 0.567288
vt 0.060155 0.567288
vt 0.060155 0.567288
vt 0.576983 0.925761
vt 0.576983 0.925761
vt 0.576983 0.925761
vt 0.576983 0.925761
vt 0.571088 0.690148
vt 0.571088 0.690148
vt 0.571088 0.690148
vt 0.576983 0.427824
vt 0.576983 0.427824
vt 0.576983 0.427824
vt 0.060155 0.921541
vt 0.060155 0.567288
vt 0.315004 0.943550
vt 0.060155 0.567288
vt 0.571088 0.690148
vn 0.0000 -1.0000 0.0000
vn 0.3519 -0.6270 -0.6950
vn -0.6839 -0.4855 0.5446
vn -0.4809 0.4419 0.7573
vn -0.0000 0.0000 -1.0000
vn 0.0000 0.7071 -0.7071
vn 0.0000 1.0000 0.0000
vn 0.4672 -0.3770 -0.7998
vn -0.5132 -0.0561 0.8565
vn -0.5148 0.3456 0.7846
s off
f 8/1/1 3/2/1 9/3/1
f 4/4/2 5/5/2 6/6/2
f 7/7/1 6/8/1 5/9/1
f 1/10/3 11/11/3 2/12/3
f 10/13/4 3/14/4 11/15/4
f 17/16/5 12/17/5 13/18/5
f 17/16/5 16/19/5 12/17/5
f 17/20/6 15/21/6 16/22/6
f 18/23/7 14/24/7 15/25/7
f 8/1/1 4/26/1 3/2/1
f 4/4/8 8/27/8 5/5/8
f 1/10/9 10/28/9 11/11/9
f 10/13/10 9/29/10 3/14/10
f 17/20/6 18/30/6 15/21/6
