# Blender v3.0.0 OBJ File: 'BuildingParts.blend'
# www.blender.org
o WallCorner-AB-BB-BB_Plane.011
v 0.000000 0.500000 0.000000
v -0.250000 0.000000 0.433012
v 0.250000 0.000000 0.433012
v -0.143391 0.500000 0.248360
v 0.143391 0.500000 0.248360
v -0.250000 0.288732 0.433012
v 0.250000 0.288732 0.433012
vt 0.572409 0.935982
vt 0.572409 0.935982
vt 0.572409 0.935982
vt 0.564187 0.296355
vt 0.564187 0.296355
vt 0.564187 0.296355
vt 0.568010 0.692368
vt 0.568010 0.692368
vt 0.568010 0.692368
vt 0.572409 0.935982
vt 0.568010 0.692368
vn 0.0000 0.0000 -1.0000
vn 0.0000 -1.0000 0.0000
vn 0.0000 -0.6581 -0.7529
s off
f 6/1/1 3/2/1 2/3/1
f 1/4/2 5/5/2 4/6/2
f 7/7/3 4/8/3 5/9/3
f 6/1/1 7/10/1 3/2/1
f 7/7/3 6/11/3 4/8/3
