# Blender v3.0.0 OBJ File: 'BuildingParts.blend'
# www.blender.org
o Wall-BA-BA-BB_Plane.001
v 0.500000 0.500000 0.000000
v -0.500000 0.500000 0.000000
v 0.250000 1.000000 0.433013
v -0.250000 1.000000 0.433013
v 0.289581 0.500000 0.364456
v -0.289581 0.500000 0.364456
v 0.289581 0.553485 0.364456
v 0.250000 0.553485 0.433013
v -0.250000 0.553485 0.433013
v -0.289581 0.553485 0.364456
vt 0.691875 0.967348
vt 0.691875 0.967348
vt 0.691875 0.967348
vt 0.689398 0.308387
vt 0.689398 0.308387
vt 0.689398 0.308387
vt 0.192576 0.940271
vt 0.192576 0.940271
vt 0.192576 0.940271
vt 0.555068 0.923595
vt 0.555068 0.923595
vt 0.555068 0.923595
vt 0.691875 0.967348
vt 0.689398 0.308387
vt 0.192576 0.940271
vt 0.555068 0.923595
vn 0.0000 1.0000 -0.0000
vn 0.0000 0.0000 -1.0000
s off
f 8/1/1 10/2/1 9/3/1
f 7/4/2 6/5/2 10/6/2
f 2/7/1 5/8/1 1/9/1
f 9/10/2 3/11/2 8/12/2
f 8/1/1 7/13/1 10/2/1
f 7/4/2 5/14/2 6/5/2
f 2/7/1 6/15/1 5/8/1
f 9/10/2 4/16/2 3/11/2
