<svg width="24" height="24" viewBox="0 0 24 24" fill="none" xmlns="http://www.w3.org/2000/svg">
<path fill-rule="evenodd" clip-rule="evenodd" d="M4.3 3.2C4.00826 3.2 3.72847 3.31589 3.52218 3.52218C3.31589 3.72847 3.2 4.00826 3.2 4.3V19.7C3.2 19.9917 3.31589 20.2715 3.52218 20.4778C3.72847 20.6841 4.00826 20.8 4.3 20.8H19.7C19.9917 20.8 20.2715 20.6841 20.4778 20.4778C20.6841 20.2715 20.8 19.9917 20.8 19.7V8.05564L15.9444 3.2H4.3ZM1.96655 1.96655C2.58542 1.34768 3.42479 1 4.3 1H16.4C16.6917 1 16.9715 1.11589 17.1778 1.32218L22.6778 6.82218C22.8841 7.02847 23 7.30826 23 7.6V19.7C23 20.5752 22.6523 21.4146 22.0335 22.0335C21.4146 22.6523 20.5752 23 19.7 23H4.3C3.42479 23 2.58542 22.6523 1.96655 22.0335C1.34768 21.4146 1 20.5752 1 19.7V4.3C1 3.42479 1.34768 2.58542 1.96655 1.96655Z" fill="#F5EDED"/>
<path fill-rule="evenodd" clip-rule="evenodd" d="M5 13.1C5 12.4925 5.52233 12 6.16667 12H17.8333C18.4777 12 19 12.4925 19 13.1V21.9C19 22.5075 18.4777 23 17.8333 23C17.189 23 16.6667 22.5075 16.6667 21.9V14.2H7.33333V21.9C7.33333 22.5075 6.811 23 6.16667 23C5.52233 23 5 22.5075 5 21.9V13.1Z" fill="#F5EDED"/>
<path fill-rule="evenodd" clip-rule="evenodd" d="M6.1 1C6.70751 1 7.2 1.51167 7.2 2.14286V6.71429H14.9C15.5075 6.71429 16 7.22596 16 7.85714C16 8.48833 15.5075 9 14.9 9H6.1C5.49249 9 5 8.48833 5 7.85714V2.14286C5 1.51167 5.49249 1 6.1 1Z" fill="#F5EDED"/>
</svg>
