<svg width="100" height="100" viewBox="0 0 100 100" fill="none" xmlns="http://www.w3.org/2000/svg">
<path d="M7.52513 47.5251C6.15829 48.892 6.15829 51.108 7.52513 52.4749L29.799 74.7487C31.1658 76.1156 33.3819 76.1156 34.7487 74.7487C36.1156 73.3819 36.1156 71.1658 34.7487 69.799L14.9497 50L34.7487 30.201C36.1156 28.8342 36.1156 26.6181 34.7487 25.2513C33.3819 23.8844 31.1658 23.8844 29.799 25.2513L7.52513 47.5251ZM92.4749 52.4749C93.8417 51.108 93.8417 48.892 92.4749 47.5251L70.201 25.2513C68.8342 23.8844 66.6181 23.8844 65.2513 25.2513C63.8844 26.6181 63.8844 28.8342 65.2513 30.201L85.0503 50L65.2513 69.799C63.8844 71.1658 63.8844 73.3819 65.2513 74.7487C66.6181 76.1156 68.8342 76.1156 70.201 74.7487L92.4749 52.4749ZM10 53.5H90V46.5H10V53.5Z" fill="black"/>
</svg>