<svg width="1584" height="1584" viewBox="0 0 1584 1584" fill="none" xmlns="http://www.w3.org/2000/svg">
<rect width="1584" height="1584" rx="792" fill="#00172D"/>
<path d="M1178.73 998.389C1332.12 695.195 1279.27 360.229 1060.69 250.222C842.107 140.214 540.561 296.823 387.17 600.018C233.78 903.212 286.629 1238.18 505.213 1348.19C723.797 1458.19 1025.34 1301.58 1178.73 998.389Z" fill="#002A48"/>
<path d="M384.683 549.939C250.228 697.452 274.351 1178.64 274.351 1178.64C274.351 1178.64 262.092 1284.74 359.374 1300.12C449.933 1314.32 469.705 1275.28 489.082 1242.54C515.578 1198.36 560.264 1138.81 593.878 1105.28C619.978 1079.25 669.014 1072.54 695.509 1072.54L734.659 752.671L695.509 478.549C695.509 478.155 450.328 478.155 384.683 549.939ZM550.378 813.411C531.396 832.343 566.196 909.255 502.528 909.255C438.86 909.255 473.66 832.343 454.678 813.411C435.696 794.479 358.583 829.188 358.583 765.686C358.583 702.185 435.696 736.894 454.678 717.962C473.66 699.03 438.86 622.118 502.528 622.118C566.196 622.118 531.396 699.03 550.378 717.962C569.36 736.894 646.473 702.185 646.473 765.686C646.473 829.188 569.36 794.479 550.378 813.411Z" fill="#F5EDED"/>
<path d="M1150.28 659.194L918.15 1314.32C913.405 1328.13 896.4 1336.81 879 1334.83C858.832 1332.47 845.387 1317.08 850.132 1301.31L992.496 629.218C1002.78 592.931 1049.05 570.45 1094.13 579.916C1137.23 589.382 1162.54 624.879 1150.28 659.194Z" fill="#ED1C24"/>
<path d="M1243.61 513.653C1231.75 542.051 1169.26 591.353 1102.43 571.632C989.332 538.501 963.232 376.395 1097.69 303.033C1169.26 263.985 1228.58 254.125 1297.39 277.001C1314 282.523 1316.37 305.399 1301.35 314.077C1277.22 327.487 1247.17 362.985 1252.7 392.172C1261.01 436.347 1255.47 485.255 1243.61 513.653Z" fill="#ED1C24"/>
<path d="M1294.62 549.939C1273.27 549.939 1273.27 582.676 1294.62 582.676C1315.98 582.676 1315.98 549.939 1294.62 549.939Z" fill="#F5EDED"/>
<path d="M695.51 478.155C787.255 484.86 816.123 440.685 902.332 428.064C943.064 422.147 983.796 445.812 983.796 491.565C983.796 540.867 945.437 547.178 908.264 555.461C877.023 562.56 854.878 585.831 887.305 614.229C916.964 640.261 974.7 636.711 1009.9 628.428C1042.32 620.934 1162.94 547.573 1180.34 595.692C1215.14 693.113 934.364 671.026 953.346 758.587C963.627 805.523 1055.37 785.407 1034.02 852.064C1020.57 893.084 933.178 892.295 898.378 908.072C856.459 927.398 813.75 984.589 858.832 1025.61C875.046 1040.2 939.505 1045.33 937.923 1072.94C936.341 1103.7 842.223 1085.56 829.173 1082.8C763.132 1069.39 728.332 1066.23 643.31 1079.25C643.31 1079.25 591.11 1098.97 663.083 994.449C735.055 889.928 610.883 896.633 643.31 844.176C675.737 791.718 748.105 772.391 715.282 733.344C682.46 694.296 577.665 654.855 630.26 609.102C682.855 563.349 650.033 530.612 643.31 511.286C636.587 491.959 663.083 478.155 695.51 478.155Z" fill="#F5EDED"/>
<path d="M1049.44 1111.59C986.169 1129.34 1035.21 1167.6 1068.03 1175.09C1082.66 1178.64 1102.04 1175.49 1115.09 1183.38C1123 1188.11 1134.86 1214.93 1140.4 1216.51C1173.22 1224.4 1158.98 1177.85 1145.93 1158.53C1126.55 1130.52 1084.64 1101.73 1049.44 1111.59Z" fill="#F5EDED"/>
</svg>
