# Blender v3.0.0 OBJ File: 'BuildingParts.blend'
# www.blender.org
o Floor-WB-WB-WB_Plane.041
v -0.500000 0.500000 0.000000
v 0.500000 0.500000 0.000000
v 0.000000 0.500000 0.866025
v 0.278411 0.500000 0.127935
v -0.278411 0.500000 0.127935
v 0.000000 0.500000 0.610156
v 0.150415 0.434373 0.229876
v -0.150415 0.434373 0.229876
v 0.000000 0.434373 0.490402
v 0.062407 0.319517 0.280687
v -0.062407 0.319517 0.280687
v 0.000000 0.319517 0.388780
v 0.057305 0.047030 0.283633
v -0.057305 0.047030 0.283633
v 0.000000 0.047030 0.382888
v 0.203998 -0.004382 0.198940
v -0.203998 -0.004382 0.198940
v 0.000000 -0.004382 0.552274
v -0.256116 0.047030 0.168849
v 0.256116 0.047030 0.168849
v 0.000000 0.047030 0.612455
vt 0.055381 0.441686
vt 0.055381 0.441686
vt 0.055381 0.441686
vt 0.548682 0.687020
vt 0.548682 0.687020
vt 0.548682 0.687020
vt 0.548682 0.687020
vt 0.548682 0.687020
vt 0.548682 0.687020
vt 0.055381 0.441686
vt 0.055381 0.441686
vt 0.055381 0.441686
vt 0.070987 0.688869
vt 0.070987 0.688869
vt 0.070987 0.688869
vt 0.070987 0.688869
vt 0.070987 0.688869
vt 0.070987 0.688869
vt 0.064745 0.935444
vt 0.064745 0.935444
vt 0.064745 0.935444
vt 0.064745 0.935444
vt 0.064745 0.935444
vt 0.064745 0.935444
vt 0.075904 0.189907
vt 0.075904 0.189907
vt 0.075904 0.189907
vt 0.075904 0.189907
vt 0.075904 0.189907
vt 0.075904 0.189907
vt 0.194510 0.935874
vt 0.194510 0.935874
vt 0.194510 0.935874
vt 0.194510 0.935874
vt 0.194510 0.935874
vt 0.194510 0.935874
vn 0.0000 -0.8408 -0.5413
vn -0.0000 -1.0000 -0.0000
vn -0.6398 -0.6740 0.3694
vn 0.6398 -0.6740 0.3694
vn 0.0000 -0.4046 -0.9145
vn -0.7920 -0.4046 0.4573
vn 0.7920 -0.4046 0.4573
vn 0.0000 -0.0108 -0.9999
vn -0.8660 -0.0108 0.5000
vn 0.8660 -0.0108 0.5000
vn 0.0000 -0.5051 -0.8630
vn -0.7474 -0.5051 0.4315
vn 0.7474 -0.5051 0.4315
vn -0.0000 1.0000 0.0000
s off
f 4/1/1 8/2/1 5/3/1
f 3/4/2 4/5/2 2/6/2
f 3/4/2 5/7/2 6/8/2
f 2/6/2 5/7/2 1/9/2
f 6/10/3 8/2/3 9/11/3
f 6/10/4 7/12/4 4/1/4
f 7/13/5 11/14/5 8/15/5
f 8/15/6 12/16/6 9/17/6
f 9/17/7 10/18/7 7/13/7
f 11/19/8 13/20/8 14/21/8
f 12/22/9 14/21/9 15/23/9
f 12/22/10 13/20/10 10/24/10
f 20/25/11 17/26/11 19/27/11
f 19/27/12 18/28/12 21/29/12
f 21/29/13 16/30/13 20/25/13
f 13/31/14 21/32/14 20/33/14
f 14/34/14 21/32/14 15/35/14
f 13/31/14 19/36/14 14/34/14
f 4/1/1 7/12/1 8/2/1
f 3/4/2 6/8/2 4/5/2
f 3/4/2 1/9/2 5/7/2
f 2/6/2 4/5/2 5/7/2
f 6/10/3 5/3/3 8/2/3
f 6/10/4 9/11/4 7/12/4
f 7/13/5 10/18/5 11/14/5
f 8/15/6 11/14/6 12/16/6
f 9/17/7 12/16/7 10/18/7
f 11/19/8 10/24/8 13/20/8
f 12/22/9 11/19/9 14/21/9
f 12/22/10 15/23/10 13/20/10
f 20/25/11 16/30/11 17/26/11
f 19/27/12 17/26/12 18/28/12
f 21/29/13 18/28/13 16/30/13
f 13/31/14 15/35/14 21/32/14
f 14/34/14 19/36/14 21/32/14
f 13/31/14 20/33/14 19/36/14
