# Blender v3.0.0 OBJ File: 'BuildingParts.blend'
# www.blender.org
o Floor-AB-AB-AB_Plane.002
v -0.500000 0.500000 0.000000
v 0.500000 0.500000 0.000000
v 0.000000 0.500000 0.866025
v 0.296409 0.500000 0.117543
v -0.296409 0.500000 0.117543
v 0.000000 0.500000 0.630939
v 0.000000 0.548049 0.288675
vt 0.701250 0.566441
vt 0.701250 0.566441
vt 0.701250 0.566441
vt 0.548682 0.687020
vt 0.548682 0.687020
vt 0.548682 0.687020
vt 0.548682 0.687020
vt 0.548682 0.687020
vt 0.548682 0.687020
vt 0.701250 0.566441
vn -0.2341 -0.9628 -0.1352
vn -0.0000 -1.0000 -0.0000
vn 0.2341 -0.9628 -0.1352
vn 0.0000 -0.9628 0.2703
s off
f 4/1/1 6/2/1 7/3/1
f 3/4/2 4/5/2 2/6/2
f 1/7/2 6/8/2 3/4/2
f 2/6/2 5/9/2 1/7/2
f 6/2/3 5/10/3 7/3/3
f 5/10/4 4/1/4 7/3/4
f 3/4/2 6/8/2 4/5/2
f 1/7/2 5/9/2 6/8/2
f 2/6/2 4/5/2 5/9/2
