# Blender v3.0.0 OBJ File: 'BuildingParts.blend'
# www.blender.org
o Floor-WB-WB-WB_Plane.041
v -0.500000 0.500000 0.000000
v 0.500000 0.500000 0.000000
v 0.000000 0.500000 0.866025
v 0.278411 0.500000 0.127935
v -0.278411 0.500000 0.127935
v 0.000000 0.500000 0.610156
v 0.150415 0.434373 0.229876
v -0.150415 0.434373 0.229876
v 0.000000 0.434373 0.490402
v 0.080655 0.319517 0.270152
v -0.080655 0.319517 0.270152
v 0.000000 0.319517 0.409851
v 0.067672 0.047030 0.277648
v -0.067672 0.047030 0.277648
v 0.000000 0.047030 0.394858
v 0.142346 -0.004382 0.234534
v -0.142346 -0.004382 0.234534
v 0.000000 -0.004382 0.481085
vt 0.182025 0.701784
vt 0.182025 0.701784
vt 0.182025 0.701784
vt 0.548682 0.687020
vt 0.548682 0.687020
vt 0.548682 0.687020
vt 0.548682 0.687020
vt 0.548682 0.687020
vt 0.548682 0.687020
vt 0.182025 0.701784
vt 0.182025 0.701784
vt 0.182025 0.701784
vt 0.182025 0.701784
vt 0.182025 0.701784
vt 0.182025 0.701784
vt 0.182025 0.701784
vt 0.182025 0.701784
vt 0.182025 0.701784
vt 0.182025 0.701784
vt 0.182025 0.701784
vt 0.182025 0.701784
vn 0.0000 -0.8408 -0.5413
vn -0.0000 -1.0000 -0.0000
vn -0.6398 -0.6740 0.3694
vn 0.6398 -0.6740 0.3694
vn 0.0000 -0.3309 -0.9437
vn -0.8172 -0.3309 0.4718
vn 0.8172 -0.3309 0.4718
vn -0.0000 -0.0275 -0.9996
vn -0.8657 -0.0275 0.4998
vn 0.8657 -0.0275 0.4998
vn -0.0000 0.6426 -0.7662
vn -0.6636 0.6426 0.3831
vn 0.6636 0.6426 0.3831
s off
f 4/1/1 8/2/1 5/3/1
f 3/4/2 4/5/2 2/6/2
f 3/4/2 5/7/2 6/8/2
f 2/6/2 5/7/2 1/9/2
f 6/10/3 8/2/3 9/11/3
f 6/10/4 7/12/4 4/1/4
f 7/12/5 11/13/5 8/2/5
f 8/2/6 12/14/6 9/11/6
f 9/11/7 10/15/7 7/12/7
f 11/13/8 13/16/8 14/17/8
f 11/13/9 15/18/9 12/14/9
f 10/15/10 15/18/10 13/16/10
f 14/17/11 16/19/11 17/20/11
f 14/17/12 18/21/12 15/18/12
f 15/18/13 16/19/13 13/16/13
f 4/1/1 7/12/1 8/2/1
f 3/4/2 6/8/2 4/5/2
f 3/4/2 1/9/2 5/7/2
f 2/6/2 4/5/2 5/7/2
f 6/10/3 5/3/3 8/2/3
f 6/10/4 9/11/4 7/12/4
f 7/12/5 10/15/5 11/13/5
f 8/2/6 11/13/6 12/14/6
f 9/11/7 12/14/7 10/15/7
f 11/13/8 10/15/8 13/16/8
f 11/13/9 14/17/9 15/18/9
f 10/15/10 12/14/10 15/18/10
f 14/17/11 13/16/11 16/19/11
f 14/17/12 17/20/12 18/21/12
f 15/18/13 18/21/13 16/19/13
