# Blender v3.0.0 OBJ File: 'BuildingParts.blend'
# www.blender.org
o Innershore-WB-BB-BB_Plane.061
v 0.000000 0.500000 0.000000
v 0.250000 0.500000 0.433012
v -0.250000 0.500000 0.433012
v 0.250000 0.000000 0.433012
v -0.250000 0.000000 0.433012
vt 0.574717 0.413486
vt 0.574717 0.413486
vt 0.574717 0.413486
vt 0.326971 0.929216
vt 0.326971 0.929216
vt 0.326971 0.929216
vt 0.326971 0.929216
vn 0.0000 1.0000 0.0000
vn 0.0000 0.0000 1.0000
s off
f 1/1/1 3/2/1 2/3/1
f 3/4/2 4/5/2 2/6/2
f 3/4/2 5/7/2 4/5/2
