# Blender v3.0.0 OBJ File: 'BuildingParts.blend'
# www.blender.org
o Interface-WB-BA-BB_Plane.053
v 0.000000 1.000000 -0.000000
v -0.250000 1.000000 0.433012
v 0.000000 0.500000 0.866025
v 0.065629 0.500000 0.250785
v 0.000000 0.686514 -0.000000
v -0.250000 0.686514 0.433012
v -0.142316 0.500000 0.619527
v 0.250000 0.500000 0.433012
v 0.037421 0.553144 0.201927
v 0.000000 0.000000 0.252968
v -0.054409 0.470370 0.138760
v -0.172783 0.000000 0.566756
v -0.369003 0.500000 0.226893
v -0.079162 0.500000 0.000000
v 0.000000 0.686514 0.000000
v -0.109522 0.575476 0.106663
v 0.250000 0.000000 0.433012
v 0.065629 0.500000 0.250785
v -0.313114 0.470370 0.323697
v -0.079162 0.553485 0.000000
v -0.287199 0.575476 0.368581
v 0.000000 0.553485 0.000000
v -0.338583 0.575476 0.279581
v -0.500000 0.500000 0.000000
vt 0.564597 0.930716
vt 0.564597 0.930716
vt 0.564597 0.930716
vt 0.564597 0.930716
vt 0.552292 0.676740
vt 0.552292 0.676740
vt 0.552292 0.676740
vt 0.573624 0.448789
vt 0.573624 0.448789
vt 0.573624 0.448789
vt 0.573624 0.448789
vt 0.058987 0.566275
vt 0.058987 0.566275
vt 0.058987 0.566275
vt 0.692298 0.303762
vt 0.692298 0.303762
vt 0.692298 0.303762
vt 0.710228 0.933445
vt 0.710228 0.933445
vt 0.710228 0.933445
vt 0.560127 0.943088
vt 0.560127 0.943088
vt 0.560127 0.943088
vt 0.175805 0.930182
vt 0.175805 0.930182
vt 0.175805 0.930182
vt 0.303141 0.928402
vt 0.303141 0.928402
vt 0.303141 0.928402
vt 0.556225 0.680672
vt 0.556225 0.680672
vt 0.556225 0.680672
vt 0.076105 0.551605
vt 0.076105 0.551605
vt 0.076105 0.551605
vt 0.066852 0.941013
vt 0.066852 0.941013
vt 0.066852 0.941013
vt 0.303141 0.928402
vt 0.303141 0.928402
vt 0.070399 0.553874
vt 0.070399 0.553874
vt 0.070399 0.553874
vt 0.692298 0.303762
vt 0.692298 0.303762
vt 0.303141 0.928402
vt 0.058987 0.566275
vt 0.303141 0.928402
vt 0.556225 0.680672
vt 0.076105 0.551605
vn -0.8660 0.0000 -0.5000
vn -0.6430 -0.6746 -0.3626
vn 0.0000 -1.0000 0.0000
vn 0.7564 -0.4056 0.5131
vn -0.9845 0.0000 0.1756
vn 0.0000 1.0000 0.0017
vn -0.9833 0.0000 0.1822
vn 0.0000 1.0000 0.0000
vn 0.5622 0.2560 0.7864
vn -0.6124 -0.7071 -0.3536
vn -0.4662 0.6541 -0.5956
vn -0.6840 0.0136 0.7293
vn 0.8917 0.4482 -0.0634
vn -0.5796 0.1284 0.8048
vn -0.6927 0.2532 0.6753
vn -0.7494 0.5005 0.4335
vn -0.7030 0.0000 0.7112
vn 0.5088 0.4842 0.7118
vn 0.7802 0.4547 0.4296
vn -0.4705 0.6247 -0.6232
s off
f 6/1/1 2/2/1 1/3/1
f 6/1/1 1/3/1 5/4/1
f 7/5/2 9/6/2 4/7/2
f 7/8/3 4/9/3 3/10/3
f 3/10/3 4/9/3 8/11/3
f 19/12/4 16/13/4 21/14/4
f 11/15/5 20/16/5 14/17/5
f 9/18/6 22/19/6 20/20/6
f 9/21/7 15/22/7 22/23/7
f 14/24/8 24/25/8 13/26/8
f 19/27/9 10/28/9 11/29/9
f 6/30/10 9/31/10 7/32/10
f 13/33/11 16/34/11 14/35/11
f 16/36/8 23/37/8 21/38/8
f 17/39/12 18/40/12 11/29/12
f 16/41/13 11/42/13 14/43/13
f 10/28/14 17/39/14 11/29/14
f 18/44/15 9/45/15 11/15/15
f 9/45/16 20/16/16 11/15/16
f 18/40/17 17/39/17 8/46/17
f 19/12/18 11/47/18 16/13/18
f 19/27/19 12/48/19 10/28/19
f 6/30/10 5/49/10 9/31/10
f 13/33/20 23/50/20 16/34/20
