# Blender v3.0.0 OBJ File: 'BuildingParts.blend'
# www.blender.org
o Interface-AB-BA-BA_Plane.032
v -0.333374 0.345667 0.577420
v -0.261177 0.286117 0.452371
v 0.250000 0.000000 0.433013
v -0.250000 0.000000 0.433013
v 0.192124 0.205438 0.332769
v -0.192125 0.205438 0.332769
v 0.500000 0.500000 0.866025
v -0.256166 0.260570 0.443693
v -0.250000 0.150192 0.433013
v 0.250000 0.150192 0.433013
v -0.339944 0.370640 0.588801
v -0.412157 0.425467 0.713877
v -0.419520 0.449507 0.726631
v 0.419521 0.449507 0.726631
v 0.412157 0.425467 0.713877
v 0.339944 0.370640 0.588801
v 0.333374 0.345667 0.577420
v 0.261177 0.286117 0.452371
v 0.256166 0.260570 0.443693
v -0.192120 0.150395 0.332762
v 0.192120 0.150395 0.332762
v -0.500000 0.500000 0.866025
v 0.459760 0.500000 0.796328
v -0.459760 0.500000 0.796328
v 0.002011 0.500000 0.790908
v -0.250000 1.000000 0.433012
v 0.250000 1.000000 0.433012
v -0.000000 0.500000 -0.000000
v -0.142316 0.500000 0.246498
v -0.250000 0.686514 0.433012
v 0.250000 0.686514 0.433012
v 0.142316 0.500000 0.246498
vt 0.437994 0.938183
vt 0.437994 0.938183
vt 0.437994 0.938183
vt 0.437994 0.938183
vt 0.437994 0.938183
vt 0.437994 0.938183
vt 0.439648 0.564834
vt 0.439648 0.564834
vt 0.439648 0.564834
vt 0.439648 0.564834
vt 0.439648 0.564834
vt 0.439648 0.564834
vt 0.439648 0.564834
vt 0.439648 0.564834
vt 0.439648 0.564834
vt 0.437994 0.938183
vt 0.437994 0.938183
vt 0.437994 0.938183
vt 0.439648 0.564834
vt 0.439648 0.564834
vt 0.439648 0.564834
vt 0.453144 0.183007
vt 0.453144 0.183007
vt 0.453144 0.183007
vt 0.579574 0.936044
vt 0.579574 0.936044
vt 0.579574 0.936044
vt 0.433207 0.554767
vt 0.433207 0.554767
vt 0.433207 0.554767
vt 0.433207 0.554767
vt 0.431530 0.936216
vt 0.431530 0.936216
vt 0.431530 0.936216
vt 0.431530 0.936216
vt 0.431530 0.936216
vt 0.433207 0.554767
vt 0.576983 0.925761
vt 0.576983 0.925761
vt 0.576983 0.925761
vt 0.576983 0.925761
vt 0.571088 0.690148
vt 0.571088 0.690148
vt 0.571088 0.690148
vt 0.576983 0.427824
vt 0.576983 0.427824
vt 0.576983 0.427824
vt 0.437994 0.938183
vt 0.437994 0.938183
vt 0.439648 0.564834
vt 0.439648 0.564834
vt 0.439648 0.564834
vt 0.437994 0.938183
vt 0.439648 0.564834
vt 0.453144 0.183007
vt 0.579574 0.936044
vt 0.571088 0.690148
vn 0.0000 -0.9029 0.4299
vn 0.0000 -0.8955 0.4451
vn 0.0000 -0.0001 1.0000
vn 0.0000 -0.3216 0.9469
vn 0.0000 -0.4147 0.9100
vn 0.0000 -0.9159 0.4015
vn 0.0000 -0.4686 0.8834
vn 0.0000 1.0000 0.0020
vn 0.0000 0.0000 1.0000
vn 0.0000 -1.0000 0.0000
vn 0.0000 -0.7864 0.6177
vn 0.0069 -0.8079 0.5893
vn -0.0070 -0.8079 0.5893
vn 0.0000 0.0000 -1.0000
vn 0.0000 0.7071 -0.7071
vn 0.0000 1.0000 0.0000
s off
f 18/1/1 1/2/1 2/3/1
f 5/4/2 8/5/2 6/6/2
f 21/7/3 6/8/3 20/9/3
f 19/10/4 2/11/4 8/12/4
f 17/13/5 11/14/5 1/15/5
f 16/16/6 12/17/6 11/18/6
f 15/19/7 13/20/7 12/21/7
f 9/22/8 21/23/8 20/24/8
f 10/25/9 4/26/9 3/27/9
f 22/28/10 25/29/10 7/30/10
f 23/31/10 7/30/10 25/29/10
f 14/32/11 25/33/11 13/34/11
f 13/34/12 25/33/12 24/35/12
f 23/36/13 25/33/13 14/32/13
f 24/37/10 25/29/10 22/28/10
f 31/38/14 26/39/14 27/40/14
f 31/38/14 30/41/14 26/39/14
f 32/42/15 30/43/15 31/44/15
f 32/45/16 28/46/16 29/47/16
f 18/1/1 17/48/1 1/2/1
f 5/4/2 19/49/2 8/5/2
f 21/7/3 5/50/3 6/8/3
f 19/10/4 18/51/4 2/11/4
f 17/13/5 16/52/5 11/14/5
f 16/16/6 15/53/6 12/17/6
f 15/19/7 14/54/7 13/20/7
f 9/22/8 10/55/8 21/23/8
f 10/25/9 9/56/9 4/26/9
f 32/42/15 29/57/15 30/43/15
