# Blender v3.0.0 OBJ File: 'BuildingParts.blend'
# www.blender.org
o Roof-AA-AA-BA_Plane.003
v 0.250000 0.325118 0.433013
v -0.250000 0.325118 0.433013
v 0.250000 0.000000 0.433013
v -0.250000 0.000000 0.433013
v 0.433013 0.325118 0.116025
v -0.433013 0.325118 0.116025
v 0.259765 0.794995 0.416100
v -0.259765 0.794995 0.416100
v 0.000000 0.500000 0.866025
v 0.157995 0.698778 0.592370
v 0.092319 0.500000 0.706124
v -0.092319 0.500000 0.706124
v -0.157995 0.698778 0.592370
vt 0.554688 0.856397
vt 0.554688 0.856397
vt 0.554688 0.856397
vt 0.454679 0.828125
vt 0.454679 0.828125
vt 0.454679 0.828125
vt 0.454679 0.828125
vt 0.454679 0.828125
vt 0.454679 0.828125
vt 0.454679 0.828125
vt 0.454679 0.828125
vt 0.175781 0.820312
vt 0.175781 0.820312
vt 0.175781 0.820312
vt 0.554688 0.856397
vt 0.454679 0.828125
vt 0.454679 0.828125
vn 0.0000 0.0000 -1.0000
vn 0.0000 -1.0000 -0.0000
vn 0.0000 0.5382 -0.8428
vn 0.0000 0.8777 0.4791
vn 0.0000 0.4967 0.8679
vn 0.0000 1.0000 -0.0000
s off
f 4/1/1 1/2/1 3/3/1
f 2/4/2 5/5/2 1/6/2
f 6/7/3 7/8/3 5/5/3
f 7/8/4 13/9/4 10/10/4
f 13/9/5 11/11/5 10/10/5
f 12/12/6 9/13/6 11/14/6
f 4/1/1 2/15/1 1/2/1
f 2/4/2 6/7/2 5/5/2
f 6/7/3 8/16/3 7/8/3
f 7/8/4 8/16/4 13/9/4
f 13/9/5 12/17/5 11/11/5
