# Blender v3.0.0 OBJ File: 'BuildingParts.blend'
# www.blender.org
o Shore-WA-BA-BA_Plane.008
v 0.110453 0.000000 0.190735
v -0.110453 0.000000 0.190735
v -0.112443 0.575476 0.194171
v -0.179521 0.575476 0.310004
v 0.211021 0.500000 0.364401
v -0.211022 0.500000 0.364401
v -0.500000 0.500000 0.866025
v 0.179521 0.575476 0.310004
v 0.112443 0.575476 0.194171
v 0.137715 0.500000 0.237812
v -0.137715 0.500000 0.237812
v 0.500000 0.500000 0.866025
vt 0.054922 0.898438
vt 0.054922 0.898438
vt 0.054922 0.898438
vt 0.054922 0.898438
vt 0.054922 0.898438
vt 0.164011 0.933594
vt 0.164011 0.933594
vt 0.164011 0.933594
vt 0.304688 0.223059
vt 0.304688 0.223059
vt 0.304688 0.223059
vt 0.054922 0.898438
vt 0.054922 0.898438
vt 0.164011 0.933594
vt 0.054922 0.898438
vt 0.304688 0.223059
vn 0.0000 1.0000 0.0000
vn 0.0000 0.5847 0.8113
vn 0.0000 0.0937 -0.9956
vn 0.0000 -0.5006 -0.8657
vn 0.0000 -0.5005 -0.8657
s off
f 9/1/1 4/2/1 8/3/1
f 5/4/2 4/2/2 6/5/2
f 7/6/1 5/7/1 6/8/1
f 2/9/3 10/10/3 1/11/3
f 11/12/4 9/1/4 10/13/4
f 5/7/1 7/6/1 12/14/1
f 9/1/1 3/15/1 4/2/1
f 5/4/2 8/3/2 4/2/2
f 2/9/3 11/16/3 10/10/3
f 11/12/5 3/15/5 9/1/5
