# Blender v3.0.0 OBJ File: 'BuildingParts.blend'
# www.blender.org
o ShoreWall-WA-BB-BB_Plane.040
v 0.112284 0.000000 0.191786
v -0.111098 0.000000 0.191786
v 0.139614 0.500000 0.239122
v -0.138428 0.500000 0.239122
v -0.113093 0.575476 0.195241
v 0.114279 0.575476 0.195241
v 0.181524 0.575476 0.311712
v -0.180338 0.575476 0.311712
v 0.213102 0.500000 0.364456
v -0.211917 0.500000 0.364456
v 0.213102 0.553485 0.364456
v 0.250000 0.553485 0.433013
v 0.250000 1.000000 0.433013
v -0.211917 0.553485 0.364456
v -0.250000 0.553485 0.433013
v -0.250000 1.000000 0.433013
vt 0.322824 0.938019
vt 0.322824 0.938019
vt 0.322824 0.938019
vt 0.055112 0.557865
vt 0.055112 0.557865
vt 0.055112 0.557865
vt 0.055112 0.557865
vt 0.055112 0.557865
vt 0.055112 0.557865
vt 0.055112 0.929460
vt 0.055112 0.929460
vt 0.055112 0.929460
vt 0.685090 0.314945
vt 0.685090 0.314945
vt 0.685090 0.314945
vt 0.678848 0.913296
vt 0.678848 0.913296
vt 0.678848 0.913296
vt 0.561520 0.936865
vt 0.561520 0.936865
vt 0.561520 0.936865
vt 0.322824 0.938019
vt 0.055112 0.557865
vt 0.055112 0.557865
vt 0.055112 0.929460
vt 0.685090 0.314945
vt 0.678848 0.913296
vt 0.561520 0.936865
vn 0.0000 0.0943 -0.9955
vn 0.0000 -0.5026 -0.8645
vn 0.0000 0.5728 0.8197
vn 0.0000 1.0000 0.0000
vn 0.0000 0.0000 -1.0000
s off
f 2/1/1 3/2/1 1/3/1
f 4/4/2 6/5/2 3/6/2
f 7/7/3 10/8/3 9/9/3
f 8/10/4 6/11/4 5/12/4
f 14/13/5 9/14/5 10/15/5
f 12/16/4 14/17/4 15/18/4
f 12/19/5 16/20/5 13/21/5
f 2/1/1 4/22/1 3/2/1
f 4/4/2 5/23/2 6/5/2
f 7/7/3 8/24/3 10/8/3
f 8/10/4 7/25/4 6/11/4
f 14/13/5 11/26/5 9/14/5
f 12/16/4 11/27/4 14/17/4
f 12/19/5 15/28/5 16/20/5
