# Blender v3.0.0 OBJ File: 'BuildingParts.blend'
# www.blender.org
o ShoreCorner-WA-BB-BA_Plane.031
v 0.389272 0.000000 0.191786
v 0.278460 0.000000 -0.001113
v 0.274471 0.575476 -0.001113
v 0.139982 0.575476 -0.001113
v 0.289581 0.500000 0.364456
v 0.076824 0.500000 -0.001113
v -0.289581 0.500000 0.364456
v 0.320033 0.575476 0.311712
v 0.387277 0.575476 0.195241
v 0.361943 0.500000 0.239122
v 0.223802 0.500000 -0.001113
v 0.289581 0.553485 0.364456
v -0.289581 0.553485 0.364456
v 0.250000 0.553485 0.433013
v -0.250000 0.553485 0.433013
v 0.250000 1.000000 0.433013
v -0.250000 1.000000 0.433013
v -0.500000 0.500000 0.000000
vt 0.062500 0.913279
vt 0.062500 0.913279
vt 0.062500 0.913279
vt 0.052591 0.563980
vt 0.052591 0.563980
vt 0.052591 0.563980
vt 0.175805 0.930182
vt 0.175805 0.930182
vt 0.175805 0.930182
vt 0.312527 0.923732
vt 0.312527 0.923732
vt 0.312527 0.923732
vt 0.052591 0.563980
vt 0.052591 0.563980
vt 0.052591 0.563980
vt 0.686743 0.319040
vt 0.686743 0.319040
vt 0.686743 0.319040
vt 0.710228 0.933445
vt 0.710228 0.933445
vt 0.710228 0.933445
vt 0.560127 0.943088
vt 0.560127 0.943088
vt 0.560127 0.943088
vt 0.175805 0.930182
vt 0.062500 0.913279
vt 0.052591 0.563980
vt 0.312527 0.923732
vt 0.052591 0.563980
vt 0.686743 0.319040
vt 0.710228 0.933445
vt 0.560127 0.943088
vn 0.0000 1.0000 0.0000
vn -0.7003 0.5860 0.4076
vn 0.8630 0.0942 -0.4963
vn 0.7496 -0.5022 -0.4311
vn 0.0000 0.0000 -1.0000
vn -0.7106 0.5725 0.4090
vn 0.8632 0.0944 -0.4959
vn 0.7494 -0.5031 -0.4305
s off
f 9/1/1 4/2/1 8/3/1
f 5/4/2 4/5/2 6/6/2
f 7/7/1 5/8/1 6/9/1
f 1/10/3 11/11/3 10/12/3
f 11/13/4 9/14/4 10/15/4
f 7/16/5 12/17/5 5/18/5
f 13/19/1 14/20/1 12/21/1
f 15/22/5 16/23/5 14/24/5
f 7/7/1 6/9/1 18/25/1
f 9/1/1 3/26/1 4/2/1
f 5/4/6 8/27/6 4/5/6
f 1/10/7 2/28/7 11/11/7
f 11/13/8 3/29/8 9/14/8
f 7/16/5 13/30/5 12/17/5
f 13/19/1 15/31/1 14/20/1
f 15/22/5 17/32/5 16/23/5
