# Blender v3.0.0 OBJ File: 'BuildingParts.blend'
# www.blender.org
o ShoreWall-WA-BB-BB_Plane.040
v 0.112284 0.000000 0.192950
v -0.111098 0.000000 0.192950
v 0.139614 0.500000 0.240286
v -0.138428 0.500000 0.240286
v -0.113093 0.575476 0.196406
v 0.114279 0.575476 0.196406
v 0.181524 0.575476 0.312876
v -0.180338 0.575476 0.312876
v 0.213102 0.500000 0.367573
v -0.211917 0.500000 0.367573
v 0.213102 0.553485 0.367573
v 0.252025 0.553485 0.434989
v 0.252025 1.000000 0.434989
v -0.211917 0.553485 0.367573
v -0.250839 0.553485 0.434989
v -0.250839 1.000000 0.434989
vt 0.322824 0.568902
vt 0.322824 0.568902
vt 0.322824 0.568902
vt 0.055112 0.661912
vt 0.055112 0.661912
vt 0.055112 0.661912
vt 0.055112 0.661912
vt 0.055112 0.661912
vt 0.055112 0.661912
vt 0.055112 0.661912
vt 0.678848 0.561520
vt 0.678848 0.561520
vt 0.678848 0.561520
vt 0.678848 0.561520
vt 0.678848 0.561520
vt 0.678848 0.561520
vt 0.561520 0.458746
vt 0.561520 0.458746
vt 0.561520 0.458746
vt 0.322824 0.568902
vt 0.055112 0.661912
vt 0.561520 0.458746
vn 0.0000 0.0943 -0.9955
vn 0.0000 -0.5026 -0.8645
vn 0.0000 0.5868 0.8097
vn 0.0000 1.0000 0.0000
vn 0.0000 0.0000 -1.0000
s off
f 2/1/1 3/2/1 1/3/1
f 4/4/2 6/5/2 3/6/2
f 9/7/3 8/8/3 10/9/3
f 8/8/4 6/5/4 5/10/4
f 14/11/5 9/12/5 10/13/5
f 11/14/4 15/15/4 12/16/4
f 12/17/5 16/18/5 13/19/5
f 2/1/1 4/20/1 3/2/1
f 4/4/2 5/10/2 6/5/2
f 9/7/3 7/21/3 8/8/3
f 8/8/4 7/21/4 6/5/4
f 14/11/5 11/14/5 9/12/5
f 11/14/4 14/11/4 15/15/4
f 12/17/5 15/22/5 16/18/5
