# Blender v3.0.0 OBJ File: 'BuildingParts.blend'
# www.blender.org
o ShoreWall-WA-WA-BB_Plane.034
v 0.389272 0.000000 0.191786
v -0.389272 0.000000 0.191786
v 0.361943 0.500000 0.239122
v -0.361943 0.500000 0.239122
v 0.387277 0.575476 0.195241
v -0.387277 0.575476 0.195241
v 0.319712 0.575476 0.312268
v -0.320033 0.575476 0.311712
v -0.289581 0.500000 0.364456
v -0.289581 0.553485 0.364456
v -0.250000 0.553485 0.433013
v 0.289581 0.500000 0.364456
v 0.289581 0.553485 0.364456
v 0.250000 0.553485 0.433013
v 0.000000 0.000000 0.103077
v 0.000000 0.500000 0.150413
v 0.000000 0.575476 0.106532
v 0.000000 0.575476 0.298212
v 0.000000 0.500000 0.364456
v -0.250000 1.000000 0.433013
v 0.250000 1.000000 0.433013
vt 0.317919 0.925798
vt 0.317919 0.925798
vt 0.317919 0.925798
vt 0.063557 0.551676
vt 0.063557 0.551676
vt 0.063557 0.551676
vt 0.075943 0.943090
vt 0.075943 0.943090
vt 0.075943 0.943090
vt 0.693810 0.928787
vt 0.693810 0.928787
vt 0.693810 0.928787
vt 0.687021 0.310180
vt 0.687021 0.310180
vt 0.687021 0.310180
vt 0.066034 0.561586
vt 0.066034 0.561586
vt 0.066034 0.561586
vt 0.687021 0.310180
vt 0.075943 0.943090
vt 0.075943 0.943090
vt 0.063557 0.551676
vt 0.063557 0.551676
vt 0.317919 0.925798
vt 0.317919 0.925798
vt 0.572137 0.916549
vt 0.572137 0.916549
vt 0.572137 0.916549
vt 0.066034 0.561586
vt 0.066034 0.561586
vt 0.066034 0.561586
vt 0.317919 0.925798
vt 0.063557 0.551676
vt 0.075943 0.943090
vt 0.693810 0.928787
vt 0.687021 0.310180
vt 0.572137 0.916549
vn -0.2370 0.0916 -0.9672
vn 0.2073 -0.4917 -0.8457
vn 0.0000 1.0000 -0.0000
vn 0.0000 0.0000 -1.0000
vn 0.0000 0.5687 0.8225
vn -0.1879 -0.5400 -0.8204
vn 0.2210 0.1039 -0.9697
vn -0.0330 0.6593 0.7512
vn 0.0000 0.5728 0.8197
vn 0.0317 0.6593 0.7512
vn -0.2210 0.1039 -0.9697
vn 0.1879 -0.5400 -0.8204
vn -0.2073 -0.4917 -0.8457
vn 0.2370 0.0916 -0.9672
s off
f 15/1/1 4/2/1 16/3/1
f 17/4/2 3/5/2 16/6/2
f 17/7/3 7/8/3 5/9/3
f 14/10/3 10/11/3 11/12/3
f 13/13/4 19/14/4 10/15/4
f 19/16/5 12/17/5 7/18/5
f 10/15/4 19/14/4 9/19/4
f 8/20/3 17/7/3 6/21/3
f 17/4/6 4/22/6 6/23/6
f 15/1/7 3/24/7 1/25/7
f 11/26/4 21/27/4 14/28/4
f 18/29/8 19/16/8 7/18/8
f 9/30/9 19/16/9 8/31/9
f 19/16/10 18/29/10 8/31/10
f 15/1/11 2/32/11 4/2/11
f 17/4/12 5/33/12 3/5/12
f 17/7/3 18/34/3 7/8/3
f 14/10/3 13/35/3 10/11/3
f 13/13/4 12/36/4 19/14/4
f 8/20/3 18/34/3 17/7/3
f 17/4/13 16/6/13 4/22/13
f 15/1/14 16/3/14 3/24/14
f 11/26/4 20/37/4 21/27/4
