# Blender v3.0.0 OBJ File: 'BuildingParts.blend'
# www.blender.org
o WallCorner-AB-AB-BB_Plane.006
v -0.500000 0.500000 0.000000
v 0.500000 0.500000 0.000000
v -0.250000 0.000000 0.431776
v 0.250000 0.000000 0.431776
v -0.356199 0.500000 0.248360
v 0.356199 0.500000 0.248360
v -0.250000 0.288732 0.431776
v 0.250000 0.288732 0.431776
vt 0.562500 0.450431
vt 0.562500 0.450431
vt 0.562500 0.450431
vt 0.566582 0.535877
vt 0.566582 0.535877
vt 0.566582 0.535877
vt 0.691875 0.558594
vt 0.691875 0.558594
vt 0.691875 0.558594
vt 0.562500 0.450431
vt 0.566582 0.535877
vt 0.691875 0.558594
vn 0.0000 0.0000 -1.0000
vn 0.0000 -1.0000 0.0000
vn 0.0000 -0.6556 -0.7551
s off
f 8/1/1 3/2/1 7/3/1
f 1/4/2 6/5/2 5/6/2
f 8/7/3 5/8/3 6/9/3
f 8/1/1 4/10/1 3/2/1
f 1/4/2 2/11/2 6/5/2
f 8/7/3 7/12/3 5/8/3
