# Blender v3.0.0 OBJ File: 'BuildingParts.blend'
# www.blender.org
o Wall-BB-BB-BA_Plane.005
v 0.000000 0.500000 0.000000
v 0.250000 1.000000 0.433013
v -0.250000 1.000000 0.433013
v 0.211021 0.500000 0.365445
v -0.211022 0.500000 0.365445
v 0.211021 0.553485 0.365445
v 0.250000 0.553485 0.433013
v -0.250000 0.553485 0.433013
v -0.211022 0.553485 0.365445
vt 0.566406 0.896849
vt 0.566406 0.896849
vt 0.566406 0.896849
vt 0.183078 0.932078
vt 0.183078 0.932078
vt 0.183078 0.932078
vt 0.692551 0.923438
vt 0.692551 0.923438
vt 0.692551 0.923438
vt 0.697585 0.316680
vt 0.697585 0.316680
vt 0.697585 0.316680
vt 0.566406 0.896849
vt 0.692551 0.923438
vt 0.697585 0.316680
vn -0.0000 0.0000 -1.0000
vn 0.0000 1.0000 0.0000
s off
f 8/1/1 2/2/1 7/3/1
f 1/4/2 5/5/2 4/6/2
f 8/7/2 6/8/2 9/9/2
f 6/10/1 5/11/1 9/12/1
f 8/1/1 3/13/1 2/2/1
f 8/7/2 7/14/2 6/8/2
f 6/10/1 4/15/1 5/11/1
