# Blender v3.0.0 OBJ File: 'BuildingParts.blend'
# www.blender.org
o WallCorner-AA-AB-AB_Plane.020
v 0.250000 1.000000 0.433013
v -0.250000 1.000000 0.433013
v -0.500000 0.500000 0.866025
v 0.357684 0.500000 0.619527
v 0.250000 0.686514 0.433013
v -0.250000 0.686514 0.433013
v -0.357684 0.500000 0.619527
v 0.500000 0.500000 0.866025
vt 0.564597 0.930716
vt 0.564597 0.930716
vt 0.564597 0.930716
vt 0.564597 0.930716
vt 0.556225 0.672807
vt 0.556225 0.672807
vt 0.556225 0.672807
vt 0.557894 0.330815
vt 0.557894 0.330815
vt 0.557894 0.330815
vt 0.557894 0.330815
vt 0.556225 0.672807
vn 0.0000 0.0000 -1.0000
vn 0.0000 -0.7071 -0.7071
vn 0.0000 -1.0000 0.0000
s off
f 6/1/1 2/2/1 1/3/1
f 6/1/1 1/3/1 5/4/1
f 5/5/2 7/6/2 6/7/2
f 7/8/3 4/9/3 3/10/3
f 3/10/3 4/9/3 8/11/3
f 5/5/2 4/12/2 7/6/2
