# Blender v3.0.0 OBJ File: 'BuildingParts.blend'
# www.blender.org
o WallCorner-AB-BB-BB_Plane.011
v 0.000000 0.500000 0.000000
v -0.250000 0.000000 0.431776
v 0.250000 0.000000 0.431776
v -0.143391 0.500000 0.248360
v 0.143391 0.500000 0.248360
v -0.250000 0.288732 0.431776
v 0.250000 0.288732 0.431776
vt 0.562500 0.450431
vt 0.562500 0.450431
vt 0.562500 0.450431
vt 0.554278 0.789338
vt 0.554278 0.789338
vt 0.554278 0.789338
vt 0.691875 0.558594
vt 0.691875 0.558594
vt 0.691875 0.558594
vt 0.562500 0.450431
vt 0.691875 0.558594
vn 0.0000 0.0000 -1.0000
vn 0.0000 -1.0000 0.0000
vn 0.0000 -0.6556 -0.7551
s off
f 7/1/1 2/2/1 6/3/1
f 1/4/2 5/5/2 4/6/2
f 6/7/3 5/8/3 7/9/3
f 7/1/1 3/10/1 2/2/1
f 6/7/3 4/11/3 5/8/3
