# Blender v3.0.0 OBJ File: 'BuildingParts.blend'
# www.blender.org
o Wall-BB-AA-BA_Plane.017
v 0.115473 0.150395 0.000000
v -0.500000 0.500000 0.000000
v 0.250000 1.000000 0.431776
v -0.250000 1.000000 0.431776
v 0.250000 0.150192 0.431776
v -0.288979 0.500000 0.364456
v 0.000000 0.150192 0.000000
v -0.250000 0.553485 0.431776
v -0.288979 0.553485 0.364456
v 0.250000 0.000000 0.433013
v 0.115464 0.205438 0.000000
v 0.049111 0.260570 0.407376
v -0.233972 0.471009 0.371298
v 0.000000 0.000000 -0.000000
v -0.220046 0.436213 0.373047
v -0.117099 0.370640 0.386178
v -0.104063 0.345667 0.387840
v 0.039171 0.286117 0.406109
v -0.423138 0.500000 0.000000
v 0.250000 0.205438 0.431776
v -0.012857 0.260570 0.000000
v -0.022877 0.286117 0.000000
v -0.167271 0.345667 0.000000
v -0.180413 0.370640 0.000000
v -0.324839 0.425467 0.000000
v -0.339565 0.449507 0.000000
v -0.233290 0.517524 0.371412
v -0.019381 0.379392 0.398130
vt 0.557995 0.932889
vt 0.557995 0.932889
vt 0.557995 0.932889
vt 0.557995 0.932889
vt 0.435631 0.203240
vt 0.435631 0.203240
vt 0.435631 0.203240
vt 0.433960 0.556993
vt 0.433960 0.556993
vt 0.433960 0.556993
vt 0.433960 0.556993
vt 0.433960 0.556993
vt 0.433960 0.556993
vt 0.435750 0.941923
vt 0.435750 0.941923
vt 0.435750 0.941923
vt 0.433960 0.556993
vt 0.433960 0.556993
vt 0.433960 0.556993
vt 0.435750 0.941923
vt 0.435750 0.941923
vt 0.435750 0.941923
vt 0.433960 0.556993
vt 0.433960 0.556993
vt 0.433960 0.556993
vt 0.435750 0.941923
vt 0.435750 0.941923
vt 0.435750 0.941923
vt 0.572307 0.928082
vt 0.572307 0.928082
vt 0.572307 0.928082
vt 0.696291 0.328604
vt 0.696291 0.328604
vt 0.696291 0.328604
vt 0.686062 0.949186
vt 0.686062 0.949186
vt 0.686062 0.949186
vt 0.435750 0.941923
vt 0.435750 0.941923
vt 0.435750 0.941923
vt 0.435750 0.941923
vt 0.409187 0.945929
vt 0.409187 0.945929
vt 0.409187 0.945929
vt 0.696291 0.328604
vt 0.696291 0.328604
vt 0.696291 0.328604
vt 0.686062 0.949186
vt 0.696291 0.328604
vt 0.696291 0.328604
vt 0.696291 0.328604
vt 0.696291 0.328604
vt 0.696291 0.328604
vt 0.433960 0.556993
vt 0.433960 0.556993
vt 0.435750 0.941923
vt 0.433960 0.556993
vt 0.435750 0.941923
vt 0.433960 0.556993
vt 0.435750 0.941923
vt 0.572307 0.928082
vt 0.686062 0.949186
vn 0.8660 -0.0041 -0.5000
vn 0.8654 0.0000 -0.5011
vn 0.0018 -1.0000 -0.0010
vn 0.9547 0.0000 -0.2975
vn 0.9217 0.3615 -0.1408
vn 0.3805 0.9227 -0.0620
vn 0.8758 0.4608 -0.1436
vn 0.3521 0.9275 -0.1256
vn 0.8227 0.5039 -0.2631
vn 0.4761 0.8597 -0.1852
vn 0.0000 0.0000 -1.0000
vn 0.1163 -0.0119 -0.9931
vn 0.5424 0.7792 -0.3141
vn 0.2733 0.9582 -0.0852
vn 0.3940 0.9171 -0.0599
vn 0.0000 1.0000 0.0000
vn 0.1239 0.0000 -0.9923
vn 0.1199 -0.0026 -0.9928
vn 0.1265 -0.0000 -0.9920
vn 0.1272 0.0010 -0.9919
vn 0.1268 0.0006 -0.9919
vn 0.1221 -0.0082 -0.9925
vn 0.9547 0.0001 -0.2975
vn 0.9250 0.3529 -0.1407
vn 0.3897 0.9190 -0.0595
vn 0.8812 0.4504 -0.1436
vn 0.5432 0.8349 -0.0891
vn 0.9002 0.3471 -0.2629
vn 0.5080 0.8408 -0.1870
vn 0.1237 0.0006 -0.9923
vn 0.1217 -0.0035 -0.9926
s off
f 10/1/1 14/2/1 5/3/1
f 7/4/2 5/3/2 14/2/2
f 7/5/3 1/6/3 5/7/3
f 1/8/4 20/9/4 5/10/4
f 18/11/5 21/12/5 22/13/5
f 17/14/6 22/15/6 23/16/6
f 16/17/7 23/18/7 24/19/7
f 15/20/8 24/21/8 25/22/8
f 13/23/9 25/24/9 26/25/9
f 26/26/10 6/27/10 13/28/10
f 3/29/11 8/30/11 4/31/11
f 28/32/12 20/33/12 18/34/12
f 8/35/13 28/36/13 27/37/13
f 11/38/14 12/39/14 20/40/14
f 11/38/15 21/41/15 12/39/15
f 6/42/16 19/43/16 2/44/16
f 27/45/17 6/46/17 9/47/17
f 9/48/13 8/35/13 27/37/13
f 12/49/18 18/34/18 20/33/18
f 17/50/19 16/51/19 18/34/19
f 15/52/20 13/53/20 16/51/20
f 27/45/21 16/51/21 13/53/21
f 16/51/22 28/32/22 18/34/22
f 1/8/23 11/54/23 20/9/23
f 18/11/24 12/55/24 21/12/24
f 17/14/25 18/56/25 22/15/25
f 16/17/26 17/57/26 23/18/26
f 15/20/27 16/58/27 24/21/27
f 13/23/28 15/59/28 25/24/28
f 26/26/29 19/60/29 6/27/29
f 3/29/11 20/61/11 8/30/11
f 8/35/13 20/62/13 28/36/13
f 27/45/30 13/53/30 6/46/30
f 27/45/31 28/32/31 16/51/31
