# Blender v3.0.0 OBJ File: 'ExtraProps.blend'
# www.blender.org
o Plane
v -0.000018 0.000000 -0.014819
v -0.000351 0.111779 0.009269
v -0.000018 0.000000 0.014819
v -0.000018 0.210510 -0.006198
v -0.000018 0.111779 -0.008182
v -0.014455 0.206824 -0.023256
v -0.025887 0.197576 0.000052
v -0.014426 0.206848 0.022218
v 0.004579 0.222224 0.022218
v 0.016040 0.231496 0.000052
v 0.005675 0.223110 -0.023256
v -0.000018 0.210571 0.006708
v -0.000812 0.209256 -0.000328
v -0.014455 0.206824 -0.023256
v -0.025887 0.197576 0.000052
v -0.014426 0.206848 0.022218
v 0.004579 0.222224 0.022218
v 0.016040 0.231496 0.000052
v 0.005675 0.223110 -0.023256
v 0.034025 0.255190 -0.002265
v 0.014597 0.239472 -0.045955
v 0.012415 0.237707 0.044629
v 0.033896 0.255086 0.003081
v -0.026790 0.205989 0.047235
v 0.008833 0.234809 0.047235
v -0.051854 0.185712 0.003081
v -0.030372 0.203091 0.044629
v -0.030431 0.203044 -0.045955
v -0.051858 0.185709 -0.002265
v -0.026720 0.206046 -0.048695
v 0.011011 0.236572 -0.048695
v 0.056734 0.249894 -0.042476
v 0.054686 0.248237 0.042531
v -0.002265 0.202162 0.083967
v -0.059216 0.156087 0.042531
v -0.059271 0.156043 -0.042476
v -0.000272 0.203774 -0.086048
vt 0.005487 0.004952
vt 0.005487 0.531978
vt 0.005487 0.004952
vt 0.005487 0.531976
vt 0.005487 0.997484
vt 0.005487 0.997774
vt 0.751824 0.998970
vt 0.858904 0.998970
vt 0.858904 0.998970
vt 0.858904 0.998970
vt 0.751824 0.998970
vt 0.858904 0.998970
vt 0.751824 0.998970
vt 0.751824 0.998970
vt 0.858904 0.998970
vt 0.858904 0.998970
vt 0.858904 0.998970
vt 0.751824 0.998970
vt 0.751824 0.998970
vt 0.858904 0.998970
vt 0.858904 0.998970
vt 0.858904 0.998970
vt 0.998810 0.998970
vt 0.858904 0.998970
vt 0.998810 0.998970
vt 0.858904 0.998970
vt 0.998810 0.998970
vt 0.998810 0.998970
vt 0.998810 0.998970
vt 0.998810 0.998970
vt 0.627780 0.997551
vt 0.627780 0.997551
vt 0.746187 0.997551
vt 0.627780 0.997551
vt 0.627780 0.997551
vt 0.627780 0.997551
vt 0.627780 0.997551
vn 1.0000 0.0030 0.0000
vn 0.9998 -0.0011 0.0191
vn 1.0000 -0.0000 0.0000
vn 0.9998 -0.0029 0.0191
vn 0.7836 -0.6075 -0.1299
vn 0.7793 -0.6089 0.1482
vn 0.6050 -0.7478 0.2734
vn 0.4254 -0.8920 0.1532
vn 0.4219 -0.8945 -0.1480
vn 0.6058 -0.7487 -0.2691
vn 0.2192 -0.9353 -0.2779
vn 0.8396 -0.4994 0.2136
vn 0.5623 -0.6951 -0.4479
vn 0.5642 -0.6974 0.4419
vn 0.2136 -0.9456 0.2452
vn 0.8355 -0.5028 -0.2217
vn 0.7860 -0.5982 0.1561
vn 0.4189 -0.8943 0.1575
vn 0.4154 -0.8968 -0.1521
vn 0.6038 -0.7463 -0.2801
vn 0.6030 -0.7453 0.2845
vn 0.7907 -0.5968 -0.1369
s off
f 1/1/1 2/2/1 3/3/1
f 2/2/2 1/1/2 5/4/2
f 4/5/3 12/6/3 5/4/3
f 5/4/4 12/6/4 2/2/4
f 18/7/5 21/8/5 20/9/5
f 18/7/6 22/10/6 17/11/6
f 17/11/7 24/12/7 16/13/7
f 15/14/8 27/15/8 26/16/8
f 15/14/9 28/17/9 14/18/9
f 19/19/10 30/20/10 31/21/10
f 22/10/11 23/22/11 33/23/11
f 28/17/12 29/24/12 36/25/12
f 24/12/13 25/26/13 34/27/13
f 31/21/14 30/20/14 37/28/14
f 20/9/15 21/8/15 32/29/15
f 26/16/16 27/15/16 35/30/16
f 18/7/5 19/19/5 21/8/5
f 18/7/6 23/22/6 22/10/6
f 17/11/7 25/26/7 24/12/7
f 15/14/8 16/13/8 27/15/8
f 15/14/9 29/24/9 28/17/9
f 19/19/10 14/18/10 30/20/10
f 10/31/17 9/32/17 13/33/17
f 8/34/18 7/35/18 13/33/18
f 7/35/19 6/36/19 13/33/19
f 6/36/20 11/37/20 13/33/20
f 9/32/21 8/34/21 13/33/21
f 11/37/22 10/31/22 13/33/22
